<svg version="1.2" xmlns="http://www.w3.org/2000/svg" viewBox="0 0 720 288" width="720" height="288"><style>.a{fill:#eb1f28}.b{fill:#3a5eaa}</style><path class="a" d="m332.2 95.9h-88.4v6.9h34q10.2 5.7 10.2 18.4 0 7.6-4.6 12.6-4.5 4.9-12.2 4.9-4.3 0-8.7-3.1-0.6-0.4-7-6.3l-6.9 7.5 36.3 31.3h15.6l-23.6-20.2q13.8-3.4 18.8-15v5.1h19.3v30.1h10v-65.3h7.2 4.5 56.6v13.2h-32.5q-9.7 0-16.5 6.8-6.8 6.8-6.8 16.5 0 9.3 6.9 16.4 6.9 7 16.2 7 9.4 0 16.6-6.9 7.2-7 7.2-16.5 0-6.6-3.7-12.7h-12.5q7.2 4.2 7.2 12.3 0 6.3-4.2 10.6-4.2 4.2-10.3 4.2-6.3 0-10.3-4.1-4-4.1-4-10.4 0-6.3 4-10.5 4-4.2 10.2-4.2h32.5v43.6h10.5v-65.3h12.1v-6.9h-79.2zm-17.2 33.4h-18.1q1-3.9 1-8.1 0-11.7-6.9-18.4h24z"/><path class="b" d="m619.8 95.9h-2.8-22.5-2.9-58.7-3.6-21.1q3-3.8 6.8-4.5-5.8-3.5-11.8-10.5-6.9-8.3-9.8-10.5-6.3-5-15.6-6.2l-7.3 6.5q11.4 1 17.5 5.8 2.9 2.1 8.6 10.1 4.4 6 9.8 9.3h-57.2v6.9h61v13.2h-32.4q-9.8 0-16.6 6.8-6.8 6.8-6.8 16.5 0 9.3 6.9 16.4 6.9 7 16.2 7 9.5 0 16.7-6.9 7.2-7 7.2-16.5 0-6.6-3.8-12.7h-12.4q7.2 4.2 7.2 12.3 0 6.3-4.2 10.6-4.2 4.2-10.4 4.2-6.3 0-10.2-4.1-4-4.1-4-10.4 0-6.3 3.9-10.5 4-4.2 10.3-4.2h32.4v43.6h10.5v-65.3h8.6 3.6 3v32.6q0 22.1 21.8 22.1h5.7q3.9-0.6 8.3-3.8v14.4h10.9v-65.3h9 2.9 3.3v65.3h10.5v-65.3h8.7 2.8 69.3v10.8q-13.9 0.1-21.8 11.6v-4.3q-7.7-7.3-18.5-7.3-11 0-19.2 7.7-8.1 7.8-8.1 18.7 0 10.9 8.1 19.3 8.1 8.4 18.9 8.4 6.9 0 13.5-3.7v-12.2q-5.3 6.1-13.1 6.1-7.3 0-12.4-5-5.1-5-5.1-12.3 0-7.3 5.1-12.3 5.1-5 12.4-5 10.1 0 15 8.9-1.3 4.2-1.3 10.2l11 5.2q-1.5-3.4-1.5-7 0-7 5-12.1 5-5 12-5.2v44.4h10.5v-64.9h11.5v-6.9zm-48.1 41.6q0 10.8-14.1 10.8-11.2 0-11.2-11.7v-33.8h25.3z"/><path class="a" d="m26 203q0 0 0.1 0.1 1.3 1.4 2.9 2.6 1.6 1.2 3.6 1.3 0.1 0 0.2 0 0 0 0.1 0 0 0 0.1 0.1 0.1 0 0.1 0 0.2 0 0.4 0 0.2-0.1 0.4-0.1 0.8-0.1 1.5-0.6 0.6-0.4 1-1 0.1-0.1 0.1-0.2 0.1-0.1 0.1-0.2 0.1-0.3 0.2-0.6 0-0.3 0-0.5 0-1.3-1.1-2.2-1.1-0.8-2.4-1.3-0.5-0.2-1-0.3-0.5-0.1-0.9-0.2 0 0-0.1-0.1 0 0-0.1 0-2.3-0.6-4.3-1.8-2.1-1.3-2.8-3.6-0.2-0.5-0.3-1-0.1-0.5-0.1-1.1-0.1-0.2-0.1-0.4v-0.3q0-0.4 0-0.8 0.1-0.3 0.2-0.7 0.1-1 0.4-1.9 0.4-1 0.9-1.7 1.5-2.5 3.9-3.6 2.4-1.1 5-1.1 0.6 0 1.2 0.1 0.6 0.1 1.3 0.1 1.7 0.3 3.4 1 1.7 0.7 3.1 1.6l-2.6 5.8q-1.3-1-2.7-1.7-1.4-0.7-3.1-0.7h-0.2-0.2q-1 0.1-2 1-0.9 0.8-0.9 1.7 0 0.2 0 0.3 0 0.2 0.1 0.3 0.1 0.3 0.3 0.6 0.3 0.3 0.6 0.5 0.5 0.5 1.5 0.8 1 0.4 2.1 0.7 0.9 0.2 1.7 0.5 0.9 0.2 1.4 0.4 2.7 0.9 4 3.1 1.3 2.2 1.4 4.7v0.1 0.1q0 0.3-0.1 0.6 0 0.2 0 0.5-0.3 2.4-1.6 4.7-1.3 2.2-3.4 3.4-0.8 0.3-1.7 0.6-0.8 0.2-1.7 0.4-0.7 0.2-1.4 0.3-0.7 0-1.4 0h-0.2-0.3q-2.8-0.1-5.6-1.2-2.7-1.2-4.8-3.1l3.7-6.1q0.1 0.1 0.1 0.1z"/><path class="a" d="m58.9 182.6v12.5q0 0.4 0 0.8 0 0.4 0 0.8-0.1 0.3-0.1 0.6 0 0.3 0 0.6v0.3 0.4 0.5 0.5q0 1.3 0.2 2.5 0.2 1.2 0.6 2.1 0.5 1.1 1.8 1.8 1.2 0.7 2.7 0.7h0.1 0.1q1.4 0 2.6-0.7 1.2-0.7 1.7-1.8 0.4-0.9 0.5-2.1 0.1-1.2 0.2-2.5v-0.5-0.5-16h8.1v17.1 0.9q0 0.4 0 0.9-0.1 2.2-0.6 4.4-0.6 2.2-2 3.8-1.5 1.8-3.7 2.6-2.1 0.7-4.5 0.9-0.6 0.1-1.3 0.1-0.6 0-1.2 0-0.7 0-1.3 0-0.7 0-1.4-0.1-2.3-0.2-4.4-1-2.2-0.7-3.7-2.5-1.4-1.6-2-3.8-0.5-2.2-0.6-4.4-0.1-0.5-0.1-0.9v-0.9-0.6-0.7-0.5q0-0.2 0.1-0.5v-1-1-12.8z"/><path class="a" d="m85.3 182.6h7.9l11.3 15.4q0.5 0.7 0.9 1.4 0.4 0.7 0.7 1.5 0.3 0.6 0.6 1.2 0.3 0.6 0.6 1.2-0.1-0.5-0.1-1-0.1-0.5-0.2-1-0.1-0.9-0.1-1.9-0.1-1-0.1-2v-14.8h7.9v30.1h-7.9l-11.4-15.6q-0.5-0.5-0.9-1.3-0.4-0.8-0.8-1.7-0.3-0.6-0.5-1.2-0.3-0.6-0.5-1.1 0.2 1.5 0.4 3 0.1 1.5 0.1 3v14.9h-7.9z"/><path class="b" d="m122.6 182.6h8.3v23h10.1v7.1h-18.4z"/><path class="b" d="m146.6 182.6h8.3v30.1h-8.3z"/><path class="b" d="m162.9 182.6h18.4v6.5h-10.3v5.3h9.7v6.4h-9.7v11.9h-8.1z"/><path class="b" d="m186 182.6h18.5v6.5h-10.4v5.3h9.8v6.4h-9.8v5.1h10.4v6.8h-18.5z"/><path class="a" d="m117.6 65.7c-3 2.8-5.6 6.3-7.7 9.8-1.9 3.1-3.1 6.3-4.1 9.7-1.1 4 0.1 8.5 1.5 12.3 2.1 5.4 5.2 10.2 7.2 15.6 1.1 3 1.8 6.1 1.8 9.2q0 2.4-0.5 4.8c-0.4 1.7-1.4 3.5-1.8 5.1 2.7-2 5.2-4.1 7.4-6.5 3.9-4.6 7.3-10.5 6.9-16.7-0.4-4.9-3.8-9.5-6.3-13.6-2.7-4.4-4.7-8.6-5.2-13.9-0.6-5.3 0.4-10.5 0.8-15.8z"/><path class="b" d="m116.4 45.4c0.9 0.1 1.9-0.1 2.8-0.1q3.7-0.1 7.4-0.2 5.5 0 10.9 0.2 6.4 0.2 12.8 0.7c4.6 0.4 9.1 0.9 13.7 1.6 4.3 0.6 8.7 1.5 13 2.6 3.8 1.1 7.6 2.3 11.1 4.1 2.9 1.4 5.8 3.3 7.9 5.7 1.9 2.2 3.2 4.8 3.4 7.7 0.6 7-3.7 12.9-8 17.9-4.7 5.5-9.9 10.6-15.2 15.6q-0.2 0.3-0.5 0.5c-21.5 20.3-38.6 49.1-12.3 58.2 26.2 9.1 54.9 12.2 54.9 12.2-2.3 0.2-5.8 0.4-10 0.5-1.6 0-3.3 0-12.1-0.1-6.5-0.1-9.7-0.1-11.7-0.2q-6.4-0.1-12.9-0.6-6.6-0.4-13.2-1.3c-4.3-0.5-8.5-1.2-12.7-2.1-3.8-0.8-7.5-1.8-11.1-3.1-3.1-1.1-6.1-2.5-8.7-4.4-2.2-1.5-4.1-3.3-5.3-5.7-1.2-2.3-1.5-4.8-1-7.3 0.7-4.2 3.3-7.4 5.7-10.7q3.2-4.2 6.5-8.3c4.2-5.1 8.4-10.1 12.8-15 12.2-13.4 21.2-23 24.9-32.8 3.8-9.8 1.8-28.9-53.1-35.6z"/><path class="b" d="m106.9 147.6c0.4 2.5 0.2 5.1-1 7.3-1.2 2.4-3.2 4.2-5.3 5.7-2.6 1.9-5.6 3.3-8.7 4.4-3.6 1.3-7.3 2.3-11.1 3.1-4.2 0.9-8.4 1.6-12.6 2.1q-6.6 0.8-13.2 1.3-6.5 0.4-12.9 0.6c-2 0.1-5.2 0.1-11.7 0.2-8.8 0.1-10.5 0.1-12.1 0.1-4.2-0.1-7.7-0.3-10-0.5 0 0 28.7-3.1 54.9-12.2 26.2-9.1 9.2-37.8-12.3-58.1q-0.3-0.2-0.6-0.5c-5.2-5-10.4-10.1-15.1-15.6q-0.7-0.8-1.3-1.6c6.4 2.9 15.5 7.5 27.5 16.7 9.2 7 19.1 15.5 27.5 23.1 4.5 4 8.6 8.4 12.2 13.2q0 0 0.1 0.1c2.4 3.2 5 6.5 5.7 10.6z"/><path class="a" d="m29.6 74.6c-2.7-3.6-2.4-6.9-2.4-6.9q0 0 0 0c0.2-2.9 1.5-5.6 3.4-7.7 2.1-2.5 5-4.3 7.9-5.7 3.5-1.8 7.3-3.1 11.1-4.1 4.3-1.1 8.6-2 13-2.6 4.5-0.7 9-1.2 13.6-1.6q6.4-0.5 12.8-0.7 5.5-0.2 10.9-0.2 3.7 0 7.4 0.1c0.9 0.1 1.9 0.2 2.7 0.1-54.8 6.8-56.7 25.9-53 35.7 3.3 8.5 10.5 16.9 20.4 27.8-2.8-2.4-7-5.8-12.3-9.8-6.7-5-10.1-7.6-15-10.5-6.1-3.7-17.3-9.7-20.5-13.9z"/><path class="b" d="m144.9 229.2q-0.7 0-0.7 0.7 0 0.8 0.7 0.8 0.8 0 0.8-0.8 0-0.7-0.8-0.7z"/><path class="b" d="m39.2 233q0 0.7 1 0.7 0.5 0 0.8-0.2l-1.1-1.6q-0.7 0.3-0.7 1.1z"/><path class="b" d="m41 231.6q-0.1 0-0.3 0l1 1.5q0.3-0.2 0.8-0.6 0 0 0.1-0.2v-0.4l-0.2 0.2q-0.7-0.5-1.4-0.5z"/><path class="b" d="m97.8 230.8q0 0.6-0.3 1.2 0.4 0.3 0.9 0.3 0.4 0 0.7-0.2 0.4-0.3 0.4-0.7v-1.8h-1.9q0.2 0.6 0.2 1.2z"/><path class="b" d="m80.2 226.1q-0.4-0.3-0.9-0.3-0.5 0-0.9 0.3-0.4 0.3-0.5 0.7-0.1 0.2-0.1 0.4 0 0.6 0.4 1h1.2 2.3q-0.6-1.5-1.5-2.1z"/><path class="b" d="m135.1 229.1q-0.3 0-0.3 0.8 0 0.4 0.2 0.9 0.2 0.6 0.6 0.6 0.4 0 0.4-0.7 0-0.2 0-0.6-0.2-1-0.9-1z"/><path class="b" d="m32.9 230.8q0 0.6-0.4 1.2 0.5 0.3 1 0.3 0.4 0 0.7-0.2 0.4-0.3 0.4-0.7v-1.8h-1.9q0.2 0.6 0.2 1.2z"/><path class="b" d="m110.9 229.2q-0.7 0-0.7 0.7 0 0.8 0.7 0.8 0.8 0 0.8-0.8 0-0.7-0.8-0.7z"/><path class="b" d="m196.2 236.8q0.2 0 0.6-0.2 0.7-0.4 1-0.9l-0.2-0.1q-0.6 0-1.4 0.5-0.3 0.2-0.3 0.4 0 0.3 0.3 0.3z"/><path class="b" d="m22.4 220.5v22.4h181.9v-22.4zm36.4 9.1h-1.7v8.1l-1.5-1.5v-6.6h-0.3-0.5-3.5v1.6q0.4-0.2 1.1-0.2 0.9 0 1.4 0.7 0.6 0.7 0.6 1.6 0 0.7-0.5 1.4-0.5 0.7-1.4 0.9l-0.6-1.2q1.6-0.6 1.6-1.4 0-0.2-0.1-0.4-0.1-0.3-0.8-0.3h-0.2q-0.5 0-1.1 1v4.4l-1.5-1.4v-1.4q-0.6 0.4-1.5 0.4-0.9 0-1.6-0.6-0.6-0.7-0.6-1.6 0-0.9 0.4-1.5 0.4-0.8 1.2-0.8 1.2 0 1.8 1.2l-0.5 0.4q-0.4-0.1-0.6-0.1-0.5 0-0.8 0.3-0.4 0.4-0.4 0.9 0 0.7 0.6 0.7 0.6 0 1.2-0.6 0.6-0.5 0.8-1.2v-2.8h-4.1-0.5-1.2v8.1l-1.4-1.4v-2.1q-1.1 0.8-2.2 0.8-1 0-1.7-0.7-0.6-0.8-0.6-1.8 0-1.3 1.1-1.9 0.6-0.3 1.1-0.3 1.3 0 2.3 1.1v-1.8h-0.8-4.1-0.5-1.2v8.1l-1.5-1.4v-2.9q-0.2 0.1-0.5 0.2-0.4 0-0.5 0-0.9 0-1.8-0.6-0.3 0.4-0.6 0.5 0 0.5 0.6 1.1l1.9 2.3-0.6 0.6-2.9-3.3q-1-1.2-1-1.9 0-0.1 0-0.3 0.3-0.7 0.9-0.7 0.2 0 0.3 0h0.7q0.4-0.3 0.4-0.7 0-0.7-0.3-1h-2.8v-1.4h8.9 0.5 4.1 0.6q-0.4-0.3-0.7-0.5-0.2 0-1.3-0.6-0.4-0.2-1.1-0.2-0.3 0-0.8 0.1l-0.6-1.7q1.9 0 2.9 0.7 0.9 0.5 1.2 0.8 0.1 0.1 0.5 0.4-0.3-0.7-1.1-1.6-0.4-0.5-1.5-0.5l-0.9-1.3q0.8-0.2 1.1-0.2h0.2q0.2 0 0.3 0 1.4 0.3 2.1 1.7 0.6 1.4 0.7 2.9h1.8 0.5 9.1 0.5 3.5zm29.3 0h-1.7v8.1l-1.5-1.4v-6.7h-1.9v4.1q0 0.2 0 0.3v0.2q0 0.8-0.5 0.8-0.4 0-0.6-0.4l-1.4-1.8q-0.3-0.4-0.3-0.8 0-0.5 0.6-0.5h0.8v-1.9h-1.7-1.3v8.2l-1.5-1.6v-6.6h-0.3-0.5-1.2v8.2l-1.5-1.5v-6.7h-0.3-0.5-1.2v8.1l-1.5-1.4v-4q-0.9 0.5-1.4 2l-1.5-1.1 0.6-0.8q-0.2-0.4-0.7-0.4-1 0-1 1.2 0 0.5 0.9 1.4 0.1 0.1 1.2 1.1l-0.5 0.7q-1.2-0.8-2-1.6-1.1-1.2-1.1-2.4 0-0.7 0.5-1.2 0.6-0.5 1.3-0.5 1.3 0 2 1.2 0.2-0.2 0.6-0.5 0.6-0.3 1.1-0.5v-1.3h-6.2v-1.3h8.9 0.5 3 0.5 0.2q-0.4-0.9-0.4-1.7 0-0.6 0.3-1.1 0.3-0.6 0.9-0.8 0.4-0.2 0.7-0.2 1.3 0 2.3 1 1 0.8 1.4 2.1l0.2 0.5q0 0.1 0 0.2h5.7zm20.3 0h-1.9q0.2 0.5 0.2 1.2 0 0.8-0.8 1.9-0.6 0.6-0.9 0.8 0 0.5 0.6 1.1l1.8 2.2-0.5 0.7-2.9-3.4q-1.1-1.1-1.1-1.9 0-0.1 0.1-0.2 0.2-0.7 0.9-0.7 0.1 0 0.3 0h0.6q0.5-0.3 0.5-0.7 0-0.7-0.3-1h-2.4-0.5-1.2v7.7q0.6 0.1 1.1 0.4 0.6 0.5 0.6 1.2 0 1.8-2 1.8-1.5 0-3.7-1.8l0.6-0.4q1 0.5 1.4 0.7 0.8 0.3 1.6 0.3 1.2 0 1.2-0.6 0-0.4-0.9-0.4-0.2 0-0.8 0.2l-0.4-1.4q0.6 0 0.9 0l-1-1.1v-2.8q-0.3 0.1-0.6 0.1-0.3 0.1-0.5 0.1-0.9 0-1.7-0.7-0.4 0.4-0.7 0.6 0.1 0.5 0.7 1.1l1.8 2.2-0.5 0.7-3-3.4q-1-1.1-1-1.9 0-0.1 0-0.2 0.3-0.7 0.9-0.7 0.2 0 0.3 0h0.7q0.4-0.3 0.4-0.7 0-0.7-0.3-1h-2.8v-1.4h8.9 0.5 5.8zm11.2 8.1l-1.5-1.4v-6.7h-0.3-0.5-1.2v8.1l-1.4-1.4v-3.6q-0.6 0.3-1.2 0.3-1.3 0-2.1-0.8-0.6 0-1.1 0.5-0.5 0.4-0.5 1 0 1 0.9 1 0.4 0 0.6-0.1 0-0.5 0.4-0.8 0.3-0.3 0.8-0.3 0.5 0 0.8 0.3 0.3 0.4 0.3 0.8 0 0.5-0.3 0.9-0.3 0.4-0.7 0.5l0.4 1.1-0.8 0.4-0.6-1.4q-1.1 0-1.9-0.8-0.9-0.8-0.9-1.9 0-1.5 1.1-2.1-1-0.9-1-1.8 0-0.6 0.4-0.9 0.5-0.4 1.1-0.4 1 0 1.7 0.7 0.7 0.7 0.7 1.7 0 0.7-0.5 1.1 0.4 0.2 0.8 0.2 0.8 0 1.6-0.7v-1.6h-0.9-0.5l-0.9-1.4h2.8v0.1h2.1 0.5 3.5v1.3h-1.7zm3.4 0.6q0 0.1-0.1 0.3-0.2 0.1-0.2 0.3-0.2 0.4-0.8 1l-0.7-0.7q0.9-0.8 0.9-1.5 0-0.4-0.3-1l-0.2-0.6 0.9-0.9 0.9 0.9q0 1.1-0.4 2.2zm14.1-0.8l-1.8-2.6q-0.3 0-0.5 0-0.6 0-1-0.3-0.5-0.3-0.5-0.9 0-0.9 0.8-1 0.3-0.1 0.7 0.1 0.4 0.2 0.6 0.5 0.5-0.4 0.6-1.1-0.4 0.2-0.9 0.2-0.8-0.1-1.2-0.7-0.5-0.6-0.5-1.4 0-0.9 0.5-1.5 0.3-0.4 0.8-0.6-0.6-1.5-1.5-2.1-0.4-0.3-0.9-0.3-0.5 0-0.9 0.3-0.4 0.3-0.5 0.7-0.1 0.2-0.1 0.4 0 0.6 0.4 1h1.2 0.5 1.2l-0.8 1.4h-0.4-0.5-0.7v8.1l-1.5-1.5v-6.6h-0.9v-1.4h0.7q-0.4-0.8-0.4-1.6 0-0.6 0.3-1.2 0.4-0.5 0.9-0.8 0.4-0.1 0.8-0.1 1.2 0 2.3 0.9 0.9 0.9 1.4 2.2l0.2 0.5q0 0 0 0 0.9 0.2 1.6 1.5 0.4 0.6 0.4 2 0 1.6-1.4 2.8l1.5 2.4zm5.4-7.9h-1.7v8.1l-1.5-1.5v-6.6h-0.8-1.2l-0.6-1.4h1.8 1.1 2.9zm12.8 0h-1.7v8.1l-1.4-1.4v-6.7h-0.4-0.5-1.2v8.1l-1.4-1.4v-3.6q-0.6 0.3-1.2 0.3-1.2 0-2.1-0.8-0.6 0-1.1 0.5-0.5 0.4-0.5 1 0 1 1 1 0.3 0 0.5-0.1 0.1-0.5 0.4-0.8 0.4-0.3 0.8-0.3 0.5 0 0.8 0.3 0.3 0.4 0.3 0.8 0 0.5-0.3 0.9-0.2 0.4-0.6 0.5l0.4 1.1-0.9 0.4-0.5-1.4q-1.2 0-2-0.8-0.9-0.8-0.9-1.9 0-1.5 1.1-2.1-1-0.8-1-1.8 0-0.6 0.5-0.9 0.4-0.4 1-0.4 1 0 1.7 0.7 0.7 0.7 0.7 1.7 0 0.7-0.5 1.1 0.4 0.2 0.9 0.2 0.7 0 1.5-0.7v-1.6h-0.9-0.5l-0.8-1.4h2.7v0.1h2.1 0.5 3.5zm11.4 0h-1.9q0.2 0.5 0.2 1.2 0 0.8-0.9 1.8-0.5 0.7-0.9 0.9 0.1 0.5 0.7 1.1l1.8 2.2-0.5 0.7-2.9-3.4q-1.1-1.2-1.1-1.9 0-0.1 0.1-0.3 0.2-0.7 0.8-0.7 0.2 0.1 0.3 0.1h0.7q0.4-0.3 0.4-0.8 0-0.6-0.3-0.9h-2.8v-1.4h6.3zm33.9 0h-1.7v2.5h-2.2q-0.6 0-1 0.3-0.3 0.3-0.3 0.9 0 0.8 0.6 1.1 0.1 0 0.2 0 0.4 0 0.6-0.3-0.1-0.1-0.1-0.3 0-1 1.3-1 0.9 0 1.2 0.9 0 0.3 0 0.5 0 0.7-0.5 1l1.6 1.6-0.8 0.6-0.8-0.7q-0.9 1.2-2.1 1.2-0.7 0-1.2-0.4-0.5-0.4-0.6-1.1-0.1 0-0.3 0-0.8 0-1.5-0.5-0.6-0.6-0.6-1.5 0-0.2 0.1-0.5 0.3-0.8 1.3-0.8l0.9 1.3q-0.9 0-0.9 0.5 0 0.6 0.5 0.6 0.2 0 0.5-0.2 0.3-0.2 0.4-0.4-0.4-0.5-0.6-1.1-0.3-0.7-0.3-1.3 0-0.8 0.6-1.3 0.6-0.5 1.3-0.5h1.2v-1.1h-4.5-0.5-0.7v8.1l-1.5-1.5v-6.6h-0.4-0.5-1.1v7.7q0.1 0 0.3 0l0.4 1.1q-1 0-1.5 0.2-0.7 0.2-0.7 0.5 0 0.5 1 0.5 0.7 0 1.3-0.5l0.7 1.1q-1.3 0.5-2 0.5-0.8 0-1.3-0.5-0.6-0.4-0.6-1.2 0-0.7 0.7-1.3 0.3-0.2 1.3-0.4l-1.1-1.1v-2.5h-2.3v1q0 0.7-0.5 0.7-0.1 0-0.2-0.1-0.5-0.1-1.2-1.1-0.3-0.4-0.6-0.9-0.3-0.4-0.3-0.7 0-0.4 0.7-0.4h0.6v-2.6h-1.7-0.5-1.1v8.1l-1.5-1.4v-2.9q-0.3 0.1-0.6 0.1-0.3 0.1-0.4 0.1-1 0-1.8-0.7-0.4 0.5-0.7 0.6 0.1 0.5 0.7 1.1l1.8 2.3-0.5 0.6-2.9-3.3q-1.1-1.2-1.1-2 0 0 0.1-0.2 0.2-0.7 0.8-0.7 0.2 0 0.3 0h0.7q0.4-0.3 0.4-0.7 0-0.7-0.3-1h-2.8v-1.4h8.9 0.5 8.1 0.5 0.2q-0.4-0.8-0.4-1.6 0-0.6 0.3-1.2 0.4-0.5 0.9-0.7 0.4-0.2 0.8-0.2 1.2 0 2.3 0.9 0.9 0.9 1.4 2.2l0.2 0.5q0 0 0 0.1h5.1z"/><path class="b" d="m184.4 232.2h2.3v-2.6h-2.3z"/><path class="b" d="m193.2 226.1q-0.4-0.3-0.9-0.3-0.4 0-0.9 0.3-0.4 0.3-0.5 0.7-0.1 0.2-0.1 0.4 0 0.6 0.5 1h1.2 0.5 1.7q-0.6-1.5-1.5-2.1z"/><path class="b" d="m176.4 230.8q0 0.6-0.4 1.2 0.5 0.3 1 0.3 0.4 0 0.7-0.2 0.4-0.3 0.4-0.7v-1.8h-1.9q0.2 0.6 0.2 1.2z"/><path class="b" d="m313.3 201.3h-16.6-0.9-17.4-0.6-6.9-0.8-26.7v2.1h21.1v3.1q-4.1 0.1-6.4 3.5v-1.3q-2.3-2.2-5.4-2.2-3.2 0-5.6 2.3-2.4 2.3-2.4 5.5 0 3.2 2.4 5.6 2.3 2.5 5.5 2.5 2 0 3.9-1.1v-3.6q-1.5 1.8-3.8 1.8-2.1 0-3.6-1.4-1.5-1.5-1.5-3.6 0-2.2 1.5-3.7 1.5-1.4 3.6-1.4 2.9 0 4.4 2.6-0.4 1.2-0.4 3l3.2 1.5q-0.4-1-0.4-2 0-2.1 1.5-3.6 1.4-1.5 3.5-1.5v13h3v-19h2.6 0.8 1v19.1h3.1v-19.1h2.8 0.6 11.6v2.3h-5.4q-1.7 0-3.1 1.2-1.4 1.1-1.4 2.8 0 3.9 5.1 3.9 0.5 0 1.6-0.1 1 0 1.5 0 3.8 0 3.8 2.7 0 1.3-0.9 2-0.9 0.7-2.2 0.7-2.5 0-4.5-1.3-0.6-0.4-3.7-3.1l-2.1 2.3 12.4 10.3 2-2.3-3.8-3.1q2.4 0 4-1.6 1.6-1.6 1.6-3.9 0-2.7-2-4.1-1.7-1.3-4.5-1.3-0.1 0-1 0-0.8 0-1.4 0-2.8 0-2.8-1.2 0-0.5 0.6-0.8 0.5-0.3 1.1-0.3h8.2v-5.1h2.7 0.9 1v9.5q0 6.5 6.4 6.5h1.7q1.1-0.2 2.4-1.1v4.2h3.2v-9.3q1-2.8 3.9-2.8 1.8 0 3 1.4 1.1 1.3 1.1 3.1 0 1.8-1.1 3.1-1.1 1.4-2.9 1.4-1 0-2.1-0.5v3.3q1.1 0.3 2.1 0.3 3 0 5-2.4 1.8-2.2 1.8-5.2 0-3.1-1.9-5.3-2.1-2.3-5-2.3-2.1 0-3.9 1.4v-5.3h1.9 1.5 9.1v-2.1h-9.1zm-5.1 12.3q0 3.1-4.2 3.1-3.2 0-3.2-3.4v-9.9h7.4z"/><path class="b" d="m355.5 209.2q-1.9 2-1.9 4.9 0 2.7 2 4.8 2 2.1 4.7 2.1 2.8 0 4.9-2.1 2.1-2 2.1-4.8 0-1.9-1.1-3.8h-3.7q2.1 1.3 2.1 3.7 0 1.8-1.2 3.1-1.2 1.2-3 1.2-1.8 0-3-1.2-1.2-1.2-1.2-3.1 0-1.8 1.2-3 1.2-1.3 3-1.3h9.5v-2.5h-9.5q-2.9 0-4.9 2z"/><path class="b" d="m444.5 209.2q-2 2-2 4.9 0 2.7 2 4.8 2.1 2.1 4.8 2.1 2.7 0 4.8-2.1 2.1-2 2.1-4.8 0-1.9-1.1-3.8h-3.6q2.1 1.3 2.1 3.7 0 1.8-1.2 3.1-1.2 1.2-3 1.2-1.9 0-3-1.2-1.2-1.2-1.2-3.1 0-1.8 1.2-3 1.1-1.3 3-1.3h9.5v-2.5h-9.5q-2.9 0-4.9 2z"/><path class="b" d="m459.3 201.3h-17.3-0.8-6.1q0.8-1.1 2-1.3-1.8-1-3.5-3.1-2-2.4-2.9-3.1-1.8-1.4-4.5-1.8l-2.2 1.9q3.4 0.3 5.2 1.8 0.8 0.6 2.5 2.9 1.3 1.8 2.9 2.7h-11.2-0.8-6.2q0.9-1.1 2-1.3-1.7-1-3.5-3.1-2-2.4-2.8-3.1-1.9-1.4-4.6-1.8l-2.1 1.9q3.3 0.3 5.1 1.8 0.8 0.6 2.5 2.9 1.3 1.8 2.9 2.7h-0.7-23.9-1.3-18.9-0.8-17.2-0.9-18v2.1h12.3v2.3h-5.4q-1.8 0-3.1 1.2-1.4 1.1-1.4 2.8 0 3.9 5.1 3.9 0.5 0 1.5-0.1 1.1 0 1.6 0 3.8 0 3.8 2.7 0 1.3-1 2-0.9 0.7-2.1 0.7-2.5 0-4.6-1.3-0.5-0.4-3.6-3.1l-2.1 2.3 12.4 10.3 2-2.3-3.8-3.1q2.3 0 3.9-1.6 1.7-1.6 1.7-3.9 0-2.7-2-4.1-1.7-1.3-4.5-1.3-0.1 0-1 0-0.9 0-1.4 0-2.8 0-2.8-1.2 0-0.5 0.5-0.8 0.6-0.3 1.2-0.3h8.1v-5.1h2.7 0.9 17.2 0.8 9.2q3 1.6 3 5.7 0 2-1.5 3.4-1.5 1.5-3.4 1.5-1.3 0-2.5-1-0.2-0.1-2.1-1.9l-2.1 2.2 10.6 9.2h4.6l-6.9-5.9q4-1 5.5-4.4v1.5h4.3v-2.6h-4q0.3-1.1 0.3-2.3 0-3.5-2-5.4h5.9 1.3 9.5q1.1 0 1.9 1.8 0.7 1.6 0.7 2.9 0 2.1-1.4 3.5-1.5 1.3-3.6 1.3-1.6 0-2.6-0.9-1.1-0.9-1.1-2.4 0-0.5 0.1-1.1l-3.1 0.7q-0.1 0.4-0.1 0.8 0 1.7 1 4.2 1.1 2.9 4 4.7 2.7 1.7 5.9 1.7 4.3 0 6.9-2v3.9h3.2v-19.1h2.6 1 0.8v19.1h3.1v-19.1h2.5 0.8 9.7q2.6 1.5 2.6 4.6 0 2.2-1.5 3.6-1.4 1.5-3.6 1.5-1.2 0-2.5-0.9-0.1-0.1-2-1.7l-2.1 2 12.3 10h4.4l-8.4-6.8q6.2-1.5 6.2-7.9 0-0.9-0.5-2.4-0.4-1.4-0.9-2h4.1 0.8 17.3 0.8 9.2q2.9 1.6 2.9 5.4 0 2.2-1.3 3.7-1.3 1.4-3.6 1.4-1.2 0-2.5-0.9-0.2-0.1-2.1-1.9l-2 2.2 10.6 9.2h4.6l-6.9-5.9q4-1 5.5-4.4v1.5h5.6v8.8h3v-19.1h3.4v-2.1h-26.4zm-49.9 12.4q0 1.9-2.9 3.1-2.4 1-4.6 1-2.9 0-5.2-2.4 1.1 0.3 2.1 0.3 3.2 0 5.3-2.4 2.1-2.3 2.1-5.5 0-2.3-1.2-4.4h4.4zm70.7-10.4v7.8h-5.3q0.3-1.2 0.3-2.4 0-3.4-2-5.4z"/><path class="b" d="m592.2 196.9q-2-1.7-4.8-1.7-2.9 0-4.9 1.7-2 1.7-2.4 4.4h-12.7-1.1-17.1-0.8-19.1-1-31.9v2.1h14.5v10q0 2.1-1.4 3.4-1.4 1.3-3.5 1.3-2.1 0-3.5-1.4-1.4-1.4-1.4-3.5 0-2.1 1.4-3.6 1.5-1.5 3.5-1.5 2.3 0 3.7 1.9v-3.8q-1.9-1-3.8-1-3.2 0-5.5 2.4-2.3 2.5-2.3 5.7 0 3.2 2.4 5.6 2.3 2.3 5.5 2.3 2.7 0 4.9-1.8v3.1h3v-10.1q0-1.6 1.6-2.9 1.6-1.4 3.3-1.4 1.9 0 3.4 1.5 1.5 1.5 1.5 3.4 0 2-1.5 3.6-1.5 1.5-3.5 1.5-1.9 0-3.3-1.3v3.5q1.7 0.9 3.5 0.9 3.1 0 5.4-2.5 2.3-2.5 2.3-5.8 0-3.1-2.3-5.4-2.3-2.3-5.5-2.3-2.7 0-4.9 1.6v-3.4h14.4 1 11.5v11.9q0 1.8-1.1 2.9-1.1 1.2-2.9 1.2-1.8 0-2.9-1.2-1.2-1.1-1.2-2.9 0-1.7 1.2-2.9 1.2-1.2 3-1.2 1.9 0 3.1 1.5v-3.8q-1.6-0.8-3.2-0.8-2.9 0-5 2.2-2.1 2.2-2.1 5.1 0 2.9 2.1 5 2.1 2 5 2 2.9 0 5-2 2.1-2.1 2.1-5.1v-4.1h3.5v-2.5h-3.5v-5.3h4.5 0.8 1.1v9.5q0 6.5 6.4 6.5h1.7q1.1-0.2 2.4-1.1v4.2h3.2v-19.1h2.3 1.1 16.7v3.8h-9.5q-2.8 0-4.8 2-2 2-2 4.9 0 2.7 2 4.8 2 2.1 4.8 2.1 2.7 0 4.8-2.1 2.1-2 2.1-4.8 0-1.9-1.1-3.8h-3.6q2.1 1.3 2.1 3.7 0 1.8-1.2 3.1-1.3 1.2-3.1 1.2-1.8 0-3-1.2-1.1-1.2-1.1-3.1 0-1.8 1.1-3 1.2-1.3 3-1.3h9.5v12.8h3.1v-19.1h1.6 1.9 0.9v19h3v-19h3.7v-2.1h-3.7q-0.4-2.7-2.4-4.4zm-31.4 16.7q0 3.1-4.2 3.1-3.2 0-3.2-3.4v-9.9h7.4zm29.9-12.3h-1.9-6q0.4-1.6 1.7-2.5 1.2-1 2.9-1 1.6 0 2.8 1 1.2 0.9 1.6 2.5z"/><path class="b" d="m700.4 208.4h7.8v-5h3.5v-2.1h-16.7-0.8-6.2q0.9-1.1 2-1.3-1.7-1-3.5-3.1-2-2.4-2.8-3.1-1.9-1.4-4.6-1.8l-2.1 1.9q3.3 0.3 5.1 1.8 0.8 0.6 2.5 2.9 1.3 1.8 2.9 2.7h-11.6-0.7-11.3q-1.3-2.8-4-4.5-2.6-1.7-5.8-1.7-3.1 0-5.8 1.7-2.6 1.7-4 4.5h-1.1-0.9-12.5q-1.4-2.8-4-4.5-2.7-1.7-5.9-1.7-3.1 0-5.8 1.7-2.6 1.7-4 4.5h-2v2.1h1.9v19h3.1v-19h2.6 0.8 20.2v3.1q-4 0.1-6.3 3.5v-1.3q-2.3-2.2-5.5-2.2-3.2 0-5.5 2.3-2.4 2.3-2.4 5.5 0 3.2 2.3 5.6 2.4 2.5 5.6 2.5 2 0 3.9-1.1v-3.6q-1.5 1.8-3.8 1.8-2.2 0-3.7-1.4-1.4-1.5-1.4-3.6 0-2.2 1.4-3.7 1.5-1.4 3.7-1.4 2.9 0 4.4 2.6-0.4 1.2-0.4 3l3.2 1.5q-0.4-1-0.4-2 0-2.1 1.4-3.6 1.5-1.5 3.5-1.5v13h3.1v-19h2.5 0.9 1v19h3v-19h2.7 0.8 11.7v11.9q0 1.8-1.1 2.9-1.1 1.2-2.9 1.2-1.8 0-2.9-1.2-1.2-1.1-1.2-2.9 0-1.7 1.2-2.9 1.2-1.2 3-1.2 1.9 0 3.1 1.5v-3.8q-1.6-0.8-3.2-0.8-2.9 0-5 2.2-2.1 2.2-2.1 5.1 0 2.9 2.1 5 2.1 2 5 2 2.9 0 5-2 2.1-2.1 2.1-5.1v-4.1h4v11.2h3.1v-19h2.6 0.7 10.8v2.8q-1-0.3-2.1-0.3-3.3 0-5.7 2.4-2.4 2.5-2.4 5.9 0 3.4 2.4 5.8 2.4 2.4 5.7 2.4 3.5 0 5.9-2.4 2.4-2.4 2.4-5.8h-3.2q0 2.2-1.4 3.6-1.4 1.4-3.7 1.4-2.1 0-3.6-1.4-1.4-1.4-1.4-3.6 0-2.2 1.5-3.7 1.5-1.4 3.7-1.4 3.4 0 4.7 3.3l0.2-0.1v-8.9h4.5 0.8 10.2v2.3h-4.6q-4.3 0-4.3 4 0 1.6 1.4 2.6 1.1 0.9 2.8 0.9 3.2 0 4 0.2 2.2 0.6 2.2 2.8 0 1.7-1.1 2.8-1.1 1.1-2.8 1.1-1.7 0-3-1.3-1.3-1.3-1.3-3 0-0.4 0-0.8h-3q0 0.7 0 0.9 0 3 2.1 4.9 2.1 2 5.1 2 2.7 0 4.8-1.8 2.1-1.8 2.1-4.4 0-6.1-6.3-6.1-2.3 0-2.4 0-1.7-0.2-1.7-1.1 0-1 1.2-1zm-83.9-7.1h-0.8-2.3q2.5-3.6 6.7-3.6 4.2 0 6.6 3.6zm34.2 0h-0.8-2.3q2.4-3.6 6.7-3.6 4.2 0 6.6 3.6zm18.8 7.4h-4v-5.3h4z"/></svg>