<svg version="1.2" xmlns="http://www.w3.org/2000/svg" viewBox="0 0 32 32" width="32" height="32"><style>.a{fill:#eb1f28}.b{fill:#3a5eaa}</style><path class="a" d="m51.4 8.2h-14.3v1.1h5.5q1.7 0.9 1.7 3 0 1.2-0.8 2-0.7 0.8-2 0.8-0.7 0-1.4-0.5-0.1 0-1.1-1l-1.1 1.2 5.9 5.1h2.5l-3.8-3.3q2.2-0.5 3-2.4v0.8h3.1v4.9h1.7v-10.6h1.1 0.8 9.1v2.2h-5.2q-1.6 0-2.7 1.1-1.1 1.1-1.1 2.6 0 1.6 1.1 2.7 1.1 1.1 2.6 1.1 1.5 0 2.7-1.1 1.2-1.1 1.2-2.7 0-1-0.6-2h-2.1q1.2 0.7 1.2 2 0 1-0.7 1.7-0.6 0.7-1.6 0.7-1.1 0-1.7-0.7-0.6-0.7-0.6-1.7 0-1 0.6-1.7 0.6-0.7 1.7-0.7h5.2v7.1h1.7v-10.6h2v-1.1h-12.8zm-2.8 5.4h-3q0.2-0.6 0.2-1.3 0-1.9-1.1-3h3.9z"/><path class="b" d="m98 8.2h-0.5-3.6-0.5-9.5-0.6-3.4q0.5-0.6 1.1-0.7-0.9-0.6-1.9-1.7-1.1-1.4-1.6-1.7-1-0.8-2.5-1l-1.2 1q1.8 0.2 2.8 1 0.5 0.3 1.4 1.6 0.7 1 1.6 1.5h-9.2v1.1h9.8v2.2h-5.2q-1.6 0-2.7 1.1-1.1 1.1-1.1 2.6 0 1.6 1.1 2.7 1.1 1.1 2.6 1.1 1.6 0 2.7-1.1 1.2-1.1 1.2-2.7 0-1-0.6-2h-2q1.1 0.7 1.1 2 0 1-0.6 1.7-0.7 0.7-1.7 0.7-1 0-1.7-0.7-0.6-0.7-0.6-1.7 0-1 0.6-1.7 0.7-0.7 1.7-0.7h5.2v7.1h1.7v-10.6h1.4 0.6 0.5v5.3q0 3.6 3.5 3.6h0.9q0.7-0.1 1.4-0.6v2.3h1.8v-10.6h1.4 0.5 0.5v10.6h1.7v-10.6h1.4 0.5 11.2v1.8q-2.3 0-3.5 1.9v-0.7q-1.3-1.2-3-1.2-1.8 0-3.1 1.2-1.4 1.3-1.4 3.1 0 1.7 1.3 3.1 1.4 1.3 3.1 1.3 1.1 0 2.2-0.6v-1.9q-0.9 1-2.1 1-1.2 0-2-0.9-0.9-0.8-0.9-1.9 0-1.2 0.9-2 0.8-0.9 2-0.9 1.6 0 2.4 1.5-0.2 0.7-0.2 1.6l1.8 0.9q-0.3-0.6-0.3-1.2 0-1.1 0.8-1.9 0.9-0.8 2-0.9v7.2h1.7v-10.5h1.8v-1.1zm-7.7 6.8q0 1.7-2.3 1.7-1.8 0-1.8-1.9v-5.5h4.1z"/><path class="a" d="m1.9 25.5q0 0.1 0 0.1 0.2 0.2 0.4 0.4 0.3 0.2 0.6 0.2 0 0 0.1 0 0 0 0 0 0 0 0 0 0 0 0 0 0 0 0.1 0 0 0 0 0 0.2 0 0.3-0.1 0.1-0.1 0.1-0.2 0.1 0 0.1 0 0 0 0 0 0-0.1 0-0.1 0-0.1 0-0.1 0-0.2-0.2-0.4-0.2-0.1-0.4-0.2 0 0-0.1 0-0.1 0-0.2-0.1 0 0 0 0 0 0 0 0-0.4-0.1-0.7-0.3-0.3-0.2-0.4-0.5-0.1-0.1-0.1-0.2 0-0.1 0-0.2 0 0 0 0v-0.1q0-0.1 0-0.1 0-0.1 0-0.1 0-0.2 0.1-0.3 0-0.2 0.1-0.3 0.3-0.4 0.6-0.6 0.4-0.2 0.9-0.2 0 0 0.2 0 0.1 0 0.2 0.1 0.2 0 0.5 0.1 0.3 0.1 0.5 0.3l-0.4 0.9q-0.2-0.1-0.4-0.3-0.3-0.1-0.5-0.1h-0.1q-0.2 0-0.3 0.2-0.2 0.1-0.2 0.3 0 0 0 0 0 0 0 0.1 0.1 0 0.1 0.1 0 0 0.1 0 0.1 0.1 0.2 0.2 0.2 0 0.4 0.1 0.1 0 0.2 0 0.2 0.1 0.3 0.1 0.4 0.2 0.6 0.5 0.2 0.4 0.2 0.8 0 0.1 0 0.1 0 0.1 0 0.1 0 0.4-0.2 0.7-0.2 0.4-0.6 0.6-0.1 0.1-0.3 0.1-0.1 0-0.2 0.1-0.2 0-0.3 0-0.1 0-0.2 0h-0.1q-0.4 0-0.9-0.2-0.4-0.2-0.8-0.5l0.7-1q0 0 0 0z"/><path class="a" d="m7.2 22.2v2.1q0 0 0 0.1 0 0.1 0 0.1 0 0.1 0 0.1 0 0.1 0 0.1v0.1 0.1 0.1q0 0.2 0 0.4 0 0.2 0.1 0.3 0.1 0.2 0.3 0.3 0.2 0.1 0.4 0.1h0.1q0.2 0 0.4-0.1 0.2-0.1 0.3-0.3 0-0.1 0-0.3 0.1-0.2 0.1-0.4v-0.1-0.1-2.6h1.3v2.8 0.2q0 0 0 0.1 0 0.4-0.1 0.7-0.1 0.4-0.3 0.6-0.3 0.3-0.6 0.4-0.4 0.2-0.8 0.2-0.1 0-0.2 0-0.1 0-0.2 0-0.1 0-0.2 0-0.1 0-0.2 0-0.4 0-0.7-0.2-0.4-0.1-0.6-0.4-0.3-0.2-0.3-0.6-0.1-0.3-0.1-0.7-0.1-0.1-0.1-0.1v-0.2-0.1-0.1-0.1q0 0 0.1 0v-0.2-0.2-2.1z"/><path class="a" d="m11.5 22.2h1.2l1.9 2.5q0 0.1 0.1 0.3 0.1 0.1 0.1 0.2 0.1 0.1 0.1 0.2 0.1 0.1 0.1 0.2 0-0.1 0-0.2 0 0 0-0.1 0-0.2 0-0.3-0.1-0.2-0.1-0.4v-2.4h1.3v4.9h-1.3l-1.8-2.5q-0.1-0.1-0.1-0.2-0.1-0.1-0.2-0.3 0-0.1-0.1-0.2 0-0.1 0-0.2 0 0.3 0 0.5 0 0.3 0 0.5v2.4h-1.2z"/><path class="b" d="m17.5 22.2h1.3v3.8h1.7v1.1h-3z"/><path class="b" d="m22.7 22.2v4.9h-1.3v-4.9z"/><path class="b" d="m24 22.2h3v1.1h-1.7v0.9h1.6v1h-1.6v1.9h-1.3z"/><path class="b" d="m27.8 22.2h2.9v1.1h-1.6v0.9h1.6v1h-1.6v0.8h1.6v1.1h-2.9z"/><path class="a" d="m16.7 3.3c-0.5 0.5-0.9 1-1.3 1.6q-0.4 0.8-0.6 1.6c-0.2 0.6 0 1.4 0.2 2 0.4 0.9 0.9 1.6 1.2 2.5 0.2 0.5 0.3 1 0.3 1.5q0 0.4-0.1 0.8c-0.1 0.2-0.2 0.5-0.3 0.8q0.7-0.5 1.2-1.1c0.6-0.7 1.2-1.7 1.1-2.7-0.1-0.8-0.6-1.5-1-2.2-0.4-0.7-0.8-1.4-0.8-2.2-0.1-0.9 0-1.7 0.1-2.6z"/><path class="b" d="m16.5 0c0.1 0.1 0.3 0 0.4 0q0.6 0 1.2 0 0.9 0 1.8 0 1 0.1 2.1 0.1 1.1 0.1 2.2 0.3 1.1 0.1 2.1 0.4 0.9 0.3 1.8 0.7c0.5 0.2 0.9 0.5 1.3 0.9 0.3 0.4 0.5 0.8 0.5 1.3 0.1 1.1-0.6 2-1.3 2.8-0.7 0.9-1.6 1.8-2.4 2.6q-0.1 0-0.1 0.1c-3.5 3.2-6.3 7.9-2 9.4 4.2 1.4 8.9 1.9 8.9 1.9-0.4 0.1-0.9 0.1-1.6 0.1-0.3 0-0.6 0-2 0-1 0-1.6 0-1.9 0q-1 0-2.1-0.1-1-0.1-2.1-0.2-1-0.2-2.1-0.4-0.9-0.2-1.8-0.5-0.7-0.2-1.4-0.7c-0.3-0.2-0.6-0.5-0.8-0.9q-0.3-0.6-0.2-1.2c0.1-0.7 0.5-1.2 0.9-1.7q0.6-0.7 1.1-1.4 1-1.2 2.1-2.4c1.9-2.2 3.4-3.7 4-5.3 0.6-1.6 0.3-4.7-8.6-5.8z"/><path class="b" d="m15 16.6q0.1 0.6-0.2 1.2c-0.2 0.3-0.5 0.6-0.9 0.9q-0.6 0.4-1.4 0.7-0.8 0.3-1.8 0.5-1 0.2-2 0.3-1.1 0.2-2.1 0.3-1.1 0-2.1 0.1c-0.4 0-0.9 0-1.9 0-1.5 0-1.7 0-2 0-0.7 0-1.2-0.1-1.6-0.1 0 0 4.6-0.5 8.9-2 4.2-1.4 1.5-6.1-2-9.4q-0.1 0-0.1 0c-0.9-0.8-1.7-1.7-2.4-2.6q-0.2-0.1-0.3-0.2c1.1 0.4 2.5 1.2 4.5 2.7 1.5 1.1 3.1 2.5 4.4 3.7q1.1 1 2 2.2 0 0 0 0c0.4 0.5 0.8 1 1 1.7z"/><path class="a" d="m2.4 4.8c-0.4-0.6-0.3-1.1-0.3-1.1q0-0.1 0-0.1c0-0.4 0.2-0.8 0.5-1.2 0.4-0.4 0.8-0.7 1.3-0.9q0.8-0.4 1.8-0.7 1-0.3 2.1-0.4 1.1-0.2 2.2-0.3 1 0 2.1-0.1 0.8 0 1.7 0 0.6 0 1.2 0c0.2 0 0.3 0 0.5 0-8.9 1.1-9.2 4.2-8.6 5.8 0.5 1.4 1.7 2.7 3.3 4.5-0.5-0.4-1.2-0.9-2-1.6-1.1-0.8-1.6-1.2-2.4-1.7-1-0.6-2.8-1.6-3.4-2.2z"/><path class="b" d="m21.1 29.8q-0.1 0-0.1 0.1 0 0.1 0.1 0.1 0.1 0 0.1-0.1 0-0.1-0.1-0.1z"/><path class="b" d="m4 30.4q0 0.1 0.2 0.1 0 0 0.1 0l-0.2-0.3q-0.1 0.1-0.1 0.2z"/><path class="b" d="m4.3 30.2q0 0-0.1 0l0.2 0.2q0 0 0.1-0.1 0 0 0.1 0v-0.1l-0.1 0.1q-0.1-0.1-0.2-0.1z"/><path class="b" d="m13.5 30q0 0.1-0.1 0.2 0.1 0.1 0.2 0.1 0 0 0.1 0 0.1-0.1 0.1-0.1v-0.3h-0.3q0 0 0 0.1z"/><path class="b" d="m10.6 29.3q0-0.1-0.1-0.1-0.1 0-0.2 0.1 0 0 0 0.1-0.1 0-0.1 0.1 0 0.1 0.1 0.1h0.2 0.4q-0.1-0.2-0.3-0.3z"/><path class="b" d="m19.5 29.8q0 0 0 0.1 0 0.1 0 0.1 0 0.1 0.1 0.1 0.1 0 0.1-0.1 0 0 0-0.1-0.1-0.1-0.2-0.1z"/><path class="b" d="m3 30q0 0.1-0.1 0.2 0.1 0.1 0.2 0.1 0 0 0.1 0 0.1-0.1 0.1-0.1v-0.3h-0.3q0 0 0 0.1z"/><path class="b" d="m15.6 29.8q-0.1 0-0.1 0.1 0 0.1 0.1 0.1 0.1 0 0.1-0.1 0-0.1-0.1-0.1z"/><path class="b" d="m29.4 31q0 0 0.1 0 0.1-0.1 0.2-0.2h-0.1q-0.1 0-0.2 0.1 0 0 0 0.1 0 0 0 0z"/><path class="b" d="m30.7 28.4v3.6h-29.4v-3.6zm-23.6 1.5h-0.2v1.3l-0.3-0.3v-1h-0.1-0.6v0.2q0.1 0 0.2 0 0.1 0 0.2 0.1 0.1 0.1 0.1 0.2 0 0.2 0 0.3-0.1 0.1-0.3 0.1l-0.1-0.2q0.3-0.1 0.3-0.2 0 0 0-0.1-0.1 0-0.2 0-0.1 0-0.2 0.2v0.7l-0.2-0.3v-0.2q-0.1 0.1-0.3 0.1-0.1 0-0.2-0.1-0.1-0.1-0.1-0.3 0-0.1 0-0.2 0.1-0.2 0.2-0.2 0.2 0 0.3 0.2v0.1q-0.1 0-0.1 0-0.1 0-0.2 0 0 0.1 0 0.2 0 0.1 0.1 0.1 0.1 0 0.2-0.1 0.1-0.1 0.1-0.2v-0.4h-0.7-0.1-0.1v1.3l-0.3-0.3v-0.3q-0.1 0.1-0.3 0.1-0.2 0-0.3-0.1-0.1-0.1-0.1-0.3 0-0.2 0.2-0.3 0.1 0 0.1 0 0.3 0 0.4 0.1v-0.2h-0.1-0.7-0.2v1.3l-0.3-0.3v-0.4q0 0-0.1 0 0 0 0 0-0.2 0-0.3-0.1-0.1 0.1-0.1 0.1 0 0.1 0.1 0.2l0.3 0.3-0.1 0.1-0.5-0.5q-0.2-0.2-0.2-0.3 0 0 0-0.1 0.1-0.1 0.2-0.1 0 0 0 0h0.1q0.1 0 0.1-0.1 0-0.1 0-0.1h-0.5v-0.3h1.5 0.7 0.1q-0.1 0-0.1 0 0-0.1-0.2-0.1-0.1-0.1-0.2-0.1-0.1 0-0.1 0l-0.1-0.2q0.3 0 0.4 0.1 0.2 0.1 0.2 0.1 0 0 0.1 0.1 0-0.1-0.2-0.3 0-0.1-0.2-0.1l-0.2-0.2q0.2 0 0.2 0h0.1q0 0 0 0 0.2 0 0.3 0.3 0.1 0.2 0.1 0.4h0.3 0.1 1.5 0.1 0.5zm4.8 0h-0.3v1.3l-0.2-0.2v-1.1h-0.3v0.7q0 0 0 0v0.1q0 0.1-0.1 0.1-0.1 0-0.1-0.1l-0.2-0.3q-0.1 0-0.1-0.1 0-0.1 0.1-0.1h0.1v-0.3h-0.2-0.2v1.4l-0.3-0.3v-1.1h-0.1-0.2v1.3l-0.3-0.2v-1.1h-0.1-0.2v1.3l-0.2-0.2v-0.6q-0.2 0-0.3 0.3l-0.2-0.2 0.1-0.1q0-0.1-0.1-0.1-0.2 0-0.2 0.2 0 0.1 0.2 0.2 0 0.1 0.2 0.2l-0.1 0.1q-0.2-0.1-0.3-0.2-0.2-0.2-0.2-0.4 0-0.1 0.1-0.2 0.1-0.1 0.2-0.1 0.2 0 0.3 0.2 0 0 0.1-0.1 0.1 0 0.2-0.1v-0.2h-1v-0.2h1.4 0.1 0.5 0.1q-0.1-0.1-0.1-0.3 0-0.1 0.1-0.1 0-0.1 0.1-0.2 0.1 0 0.1 0 0.2 0 0.4 0.2 0.2 0.1 0.2 0.3l0.1 0.1q0 0 0 0h0.9zm3.3 0h-0.3q0 0.1 0 0.2 0 0.1-0.1 0.3-0.1 0.1-0.2 0.2 0 0 0.1 0.1l0.3 0.4-0.1 0.1-0.4-0.5q-0.2-0.2-0.2-0.4 0 0 0 0 0-0.1 0.1-0.1 0.1 0 0.1 0h0.1q0.1-0.1 0.1-0.1 0-0.1-0.1-0.2h-0.4-0.2v1.3q0.1 0 0.1 0 0.1 0.1 0.1 0.2 0 0.3-0.3 0.3-0.2 0-0.6-0.3h0.1q0.2 0 0.2 0.1 0.2 0 0.3 0 0.2 0 0.2-0.1 0 0-0.2 0 0 0-0.1 0l-0.1-0.2q0.1 0 0.2 0l-0.2-0.2v-0.5q0 0-0.1 0.1 0 0 0 0-0.2 0-0.3-0.1-0.1 0-0.1 0.1 0 0 0.1 0.1l0.3 0.4-0.1 0.1-0.5-0.5q-0.2-0.2-0.2-0.4 0 0 0 0 0.1-0.1 0.2-0.1 0 0 0 0h0.1q0.1-0.1 0.1-0.1 0-0.1 0-0.2h-0.5v-0.2h1.5 1zm1.8 1.3l-0.3-0.2v-1.1h-0.1-0.2v1.3l-0.2-0.2v-0.6q-0.1 0-0.2 0-0.2 0-0.3-0.1-0.1 0-0.2 0.1-0.1 0.1-0.1 0.2 0 0.1 0.1 0.1 0.1 0 0.1 0 0-0.1 0.1-0.1 0.1-0.1 0.1-0.1 0.1 0 0.2 0.1 0 0 0 0.1 0 0.1 0 0.1-0.1 0.1-0.1 0.1v0.2l-0.1 0.1-0.1-0.3q-0.2 0-0.3-0.1-0.2-0.1-0.2-0.3 0-0.2 0.2-0.3-0.1-0.2-0.1-0.3 0-0.1 0-0.2 0.1 0 0.2 0 0.2 0 0.3 0.1 0.1 0.1 0.1 0.3 0 0.1-0.1 0.1 0.1 0.1 0.1 0.1 0.2 0 0.3-0.1v-0.3h-0.2l-0.2-0.2h0.5 0.3 0.1 0.6v0.2h-0.3zm0.5 0.1q0 0 0 0 0 0.1 0 0.1-0.1 0-0.1 0.1l-0.2-0.1q0.2-0.1 0.2-0.2 0-0.1-0.1-0.2v-0.1l0.2-0.1 0.1 0.1q0 0.2-0.1 0.4zm2.3-0.1l-0.3-0.5q0 0-0.1 0 0 0-0.1 0-0.1-0.1-0.1-0.2 0-0.1 0.1-0.1 0.1 0 0.1 0 0.1 0 0.1 0.1 0.1-0.1 0.1-0.2 0 0-0.1 0-0.1 0-0.2-0.1-0.1-0.1-0.1-0.2 0-0.1 0.1-0.3 0.1 0 0.1 0-0.1-0.3-0.2-0.4-0.1 0-0.2 0 0 0-0.1 0-0.1 0.1-0.1 0.1 0 0.1 0 0.1 0 0.1 0.1 0.2h0.2 0.2l-0.1 0.2h-0.1-0.2v1.3l-0.2-0.3v-1h-0.1v-0.2h0.1q-0.1-0.2-0.1-0.3 0-0.1 0.1-0.2 0-0.1 0.1-0.1 0.1-0.1 0.1-0.1 0.2 0 0.4 0.2 0.1 0.1 0.2 0.3l0.1 0.1q0 0 0 0 0.1 0.1 0.2 0.3 0.1 0.1 0.1 0.3 0 0.3-0.2 0.5l0.2 0.4zm0.9-1.3h-0.3v1.3l-0.2-0.3v-1h-0.2-0.2l-0.1-0.3h0.3 0.2 0.5zm2 0h-0.2v1.4l-0.3-0.3v-1.1h-0.1-0.2v1.4l-0.2-0.3v-0.6q-0.1 0.1-0.2 0.1-0.2 0-0.4-0.1-0.1 0-0.1 0-0.1 0.1-0.1 0.2 0 0.2 0.1 0.2 0.1 0 0.1-0.1 0 0 0.1-0.1 0 0 0.1 0 0.1 0 0.1 0 0.1 0.1 0.1 0.2 0 0 0 0.1-0.1 0.1-0.2 0.1l0.1 0.2h-0.1l-0.1-0.2q-0.2 0-0.3-0.1-0.2-0.2-0.2-0.4 0-0.2 0.2-0.3-0.2-0.1-0.2-0.3 0-0.1 0.1-0.1 0.1-0.1 0.2-0.1 0.1 0 0.3 0.1 0.1 0.1 0.1 0.3 0 0.1-0.1 0.2 0.1 0 0.1 0 0.1 0 0.3-0.1v-0.3h-0.2l-0.2-0.2h0.5 0.3 0.1 0.5zm1.9 0h-0.3q0 0.1 0 0.2 0 0.2-0.1 0.3-0.1 0.1-0.2 0.2 0 0 0.1 0.1l0.3 0.4-0.1 0.1-0.4-0.5q-0.2-0.2-0.2-0.3 0-0.1 0-0.1 0-0.1 0.2-0.1 0 0 0 0h0.1q0.1-0.1 0.1-0.1 0-0.1-0.1-0.2h-0.4v-0.2h1zm5.5 0h-0.3v0.4h-0.4q-0.1 0-0.1 0.1-0.1 0-0.1 0.1 0 0.1 0.1 0.2 0 0 0.1 0 0 0 0.1-0.1-0.1 0-0.1 0 0-0.2 0.2-0.2 0.2 0 0.2 0.2 0.1 0 0.1 0 0 0.2-0.1 0.2l0.2 0.3-0.1 0.1-0.1-0.2q-0.2 0.2-0.4 0.2-0.1 0-0.2 0 0-0.1-0.1-0.2 0 0 0 0-0.1 0-0.2-0.1-0.2-0.1-0.2-0.2 0-0.1 0.1-0.1 0-0.1 0.2-0.1l0.1 0.2q-0.1 0-0.1 0.1 0 0.1 0 0.1 0.1 0 0.1-0.1 0.1 0 0.1 0-0.1-0.1-0.1-0.2 0-0.1 0-0.2 0-0.2 0-0.2 0.1-0.1 0.3-0.1h0.2v-0.2h-0.8-0.2v1.3l-0.2-0.2v-1.1h-0.1-0.2v1.2q0 0 0 0l0.1 0.2q-0.2 0-0.3 0.1-0.1 0-0.1 0 0 0.1 0.2 0.1 0.1 0 0.2-0.1l0.1 0.2q-0.2 0.1-0.3 0.1-0.1 0-0.2-0.1-0.1-0.1-0.1-0.2 0-0.1 0.1-0.2 0 0 0.2 0l-0.2-0.2v-0.4h-0.4v0.1q0 0.1 0 0.1 0 0-0.1 0 0 0-0.2-0.1 0-0.1-0.1-0.2 0-0.1 0-0.1 0-0.1 0.1-0.1h0.1v-0.4h-0.3-0.2v1.3l-0.3-0.2v-0.5q0 0-0.1 0 0 0.1 0 0.1-0.2 0-0.3-0.2-0.1 0.1-0.1 0.1 0 0.1 0.1 0.2l0.3 0.4-0.1 0.1-0.5-0.6q-0.2-0.2-0.2-0.3 0 0 0.1 0 0-0.1 0.1-0.1 0 0 0 0h0.2q0-0.1 0-0.1 0-0.1 0-0.2h-0.5v-0.2h1.5 1.4 0.1q-0.1-0.2-0.1-0.3 0-0.1 0.1-0.2 0-0.1 0.1-0.1 0.1 0 0.1 0 0.2 0 0.4 0.1 0.1 0.2 0.2 0.4v0.1q0 0 0 0h0.9z"/><path class="b" d="m27.9 29.9v0.4h-0.4v-0.4z"/><path class="b" d="m28.9 29.3q0-0.1-0.1-0.1-0.1 0-0.2 0.1 0 0-0.1 0.1 0 0 0 0.1 0 0.1 0.1 0.1h0.2 0.1 0.3q-0.1-0.2-0.3-0.3z"/><path class="b" d="m26.2 30q0 0.1-0.1 0.2 0.1 0.1 0.2 0.1 0.1 0 0.1 0 0.1-0.1 0.1-0.1v-0.3h-0.3q0 0 0 0.1z"/><path class="b" d="m48.4 25.3h-2.7-0.2-2.8-0.1-1.1-0.1-4.4v0.3h3.5v0.5q-0.7 0-1.1 0.6v-0.2q-0.3-0.4-0.9-0.4-0.5 0-0.9 0.4-0.3 0.4-0.3 0.9 0 0.5 0.3 0.9 0.4 0.4 0.9 0.4 0.4 0 0.7-0.2v-0.6q-0.3 0.3-0.6 0.3-0.4 0-0.6-0.2-0.3-0.2-0.3-0.6 0-0.3 0.3-0.6 0.2-0.2 0.6-0.2 0.4 0 0.7 0.4-0.1 0.2-0.1 0.5l0.5 0.2q0-0.1 0-0.3 0-0.3 0.2-0.6 0.2-0.2 0.6-0.2v2.1h0.5v-3.1h0.4 0.1 0.2v3.1h0.5v-3.1h0.4 0.1 1.9v0.4h-0.9q-0.3 0-0.5 0.2-0.2 0.2-0.2 0.4 0 0.7 0.8 0.7 0.1 0 0.3 0 0.1 0 0.2 0 0.6 0 0.6 0.4 0 0.2-0.1 0.3-0.2 0.1-0.4 0.1-0.4 0-0.7-0.2-0.1-0.1-0.6-0.5l-0.3 0.4 2 1.6 0.3-0.3-0.6-0.5q0.4 0 0.6-0.3 0.3-0.2 0.3-0.6 0-0.5-0.3-0.7-0.3-0.2-0.8-0.2 0 0-0.1 0-0.2 0-0.3 0-0.4 0-0.4-0.2 0-0.1 0.1-0.1 0.1-0.1 0.2-0.1h1.3v-0.8h0.4 0.2 0.1v1.6q0 1 1.1 1h0.2q0.2 0 0.4-0.2v0.7h0.5v-1.5q0.2-0.5 0.7-0.5 0.3 0 0.5 0.3 0.2 0.2 0.2 0.5 0 0.3-0.2 0.5-0.2 0.2-0.5 0.2-0.2 0-0.3-0.1v0.6q0.1 0 0.3 0 0.5 0 0.8-0.4 0.3-0.3 0.3-0.8 0-0.5-0.3-0.9-0.3-0.4-0.8-0.4-0.4 0-0.7 0.3v-0.9h0.4 0.2 1.5v-0.3h-1.5zm-0.8 2q0 0.5-0.7 0.5-0.5 0-0.5-0.6v-1.6h1.2z"/><path class="b" d="m55.2 26.5q-0.3 0.4-0.3 0.8 0 0.5 0.3 0.8 0.3 0.4 0.8 0.4 0.4 0 0.8-0.4 0.3-0.3 0.3-0.8 0-0.3-0.2-0.6h-0.6q0.4 0.2 0.4 0.6 0 0.3-0.2 0.5-0.2 0.2-0.5 0.2-0.3 0-0.5-0.2-0.2-0.2-0.2-0.5 0-0.3 0.2-0.5 0.2-0.2 0.5-0.2h1.5v-0.4h-1.5q-0.5 0-0.8 0.3z"/><path class="b" d="m69.6 26.5q-0.3 0.4-0.3 0.8 0 0.5 0.3 0.8 0.3 0.4 0.8 0.4 0.4 0 0.8-0.4 0.3-0.3 0.3-0.8 0-0.3-0.2-0.6h-0.6q0.4 0.2 0.4 0.6 0 0.3-0.2 0.5-0.2 0.2-0.5 0.2-0.3 0-0.5-0.2-0.2-0.2-0.2-0.5 0-0.3 0.2-0.5 0.2-0.2 0.5-0.2h1.5v-0.4h-1.5q-0.5 0-0.8 0.3z"/><path class="b" d="m72 25.3h-2.8-0.1-1q0.1-0.2 0.3-0.2-0.3-0.2-0.6-0.5-0.3-0.4-0.4-0.5-0.3-0.3-0.8-0.3l-0.3 0.3q0.5 0 0.8 0.3 0.1 0.1 0.4 0.4 0.2 0.3 0.5 0.5h-1.8-0.1-1q0.1-0.2 0.3-0.2-0.3-0.2-0.6-0.5-0.3-0.4-0.5-0.5-0.2-0.3-0.7-0.3l-0.3 0.3q0.5 0 0.8 0.3 0.1 0.1 0.4 0.4 0.2 0.3 0.5 0.5h-0.1-3.9-0.2-3.1-0.1-2.8-0.1-3v0.3h2v0.4h-0.8q-0.3 0-0.5 0.2-0.3 0.2-0.3 0.4 0 0.7 0.9 0.7 0 0 0.2 0 0.2 0 0.3 0 0.6 0 0.6 0.4 0 0.2-0.2 0.3-0.1 0.1-0.3 0.1-0.4 0-0.8-0.2-0.1-0.1-0.6-0.5l-0.3 0.4 2 1.6 0.3-0.3-0.6-0.5q0.4 0 0.7-0.3 0.2-0.2 0.2-0.6 0-0.5-0.3-0.7-0.3-0.2-0.7-0.2 0 0-0.2 0-0.1 0-0.2 0-0.5 0-0.5-0.2 0-0.1 0.1-0.1 0.1-0.1 0.2-0.1h1.3v-0.8h0.5 0.1 2.8 0.1 1.5q0.5 0.3 0.5 0.9 0 0.4-0.3 0.6-0.2 0.2-0.5 0.2-0.2 0-0.4-0.1 0 0-0.4-0.3l-0.3 0.3 1.7 1.5h0.8l-1.1-0.9q0.6-0.2 0.8-0.8v0.3h0.7v-0.4h-0.6q0.1-0.2 0.1-0.4 0-0.6-0.4-0.9h1 0.2 1.5q0.2 0 0.3 0.3 0.1 0.3 0.1 0.5 0 0.3-0.2 0.5-0.2 0.3-0.6 0.3-0.2 0-0.4-0.2-0.2-0.1-0.2-0.4 0-0.1 0.1-0.2l-0.6 0.2q0 0 0 0.1 0 0.3 0.2 0.7 0.2 0.4 0.6 0.7 0.5 0.3 1 0.3 0.7 0 1.1-0.3v0.6h0.5v-3.1h0.5 0.1 0.1v3.1h0.5v-3.1h0.5 0.1 1.5q0.5 0.3 0.5 0.8 0 0.3-0.3 0.5-0.2 0.3-0.5 0.3-0.3 0-0.5-0.2 0 0-0.3-0.2l-0.3 0.3 2 1.6h0.7l-1.4-1.1q1-0.2 1-1.3 0-0.1-0.1-0.4 0-0.2-0.1-0.3h0.7 0.1 2.8 0.1 1.5q0.5 0.3 0.5 0.9 0 0.3-0.2 0.6-0.2 0.2-0.6 0.2-0.2 0-0.4-0.1-0.1-0.1-0.4-0.3l-0.3 0.3 1.7 1.5h0.8l-1.1-0.9q0.6-0.2 0.8-0.8v0.3h1v1.4h0.4v-3.1h0.6v-0.3h-4.3zm-8.1 2q0 0.3-0.4 0.5-0.4 0.1-0.8 0.1-0.4 0-0.8-0.3 0.2 0 0.3 0 0.5 0 0.9-0.4 0.3-0.4 0.3-0.9 0-0.4-0.2-0.7h0.7zm11.5-1.7v1.3h-0.9q0.1-0.2 0.1-0.4 0-0.5-0.3-0.9z"/><path class="b" d="m93.5 24.6q-0.3-0.3-0.8-0.3-0.4 0-0.8 0.3-0.3 0.2-0.4 0.7h-2-0.2-2.8-0.1-3.1-0.1-5.2v0.3h2.3v1.6q0 0.4-0.2 0.6-0.2 0.2-0.5 0.2-0.4 0-0.6-0.2-0.2-0.3-0.2-0.6 0-0.3 0.2-0.6 0.2-0.2 0.6-0.2 0.3 0 0.6 0.3v-0.6q-0.4-0.2-0.7-0.2-0.5 0-0.9 0.4-0.3 0.4-0.3 0.9 0 0.5 0.4 0.9 0.3 0.4 0.8 0.4 0.5 0 0.8-0.3v0.5h0.5v-1.6q0-0.3 0.3-0.5 0.2-0.2 0.5-0.2 0.3 0 0.6 0.2 0.2 0.3 0.2 0.6 0 0.3-0.2 0.5-0.3 0.3-0.6 0.3-0.3 0-0.5-0.2v0.6q0.2 0.1 0.5 0.1 0.5 0 0.9-0.4 0.4-0.4 0.4-0.9 0-0.6-0.4-0.9-0.4-0.4-0.9-0.4-0.4 0-0.8 0.3v-0.6h2.4 0.1 1.9v1.9q0 0.3-0.2 0.5-0.2 0.2-0.5 0.2-0.3 0-0.4-0.2-0.2-0.2-0.2-0.5 0-0.2 0.2-0.4 0.2-0.2 0.4-0.2 0.4 0 0.6 0.2v-0.6q-0.3-0.1-0.6-0.1-0.4 0-0.8 0.3-0.3 0.4-0.3 0.9 0 0.4 0.3 0.8 0.4 0.3 0.8 0.3 0.5 0 0.8-0.3 0.4-0.4 0.4-0.9v-0.6h0.6v-0.4h-0.6v-0.9h0.7 0.1 0.2v1.6q0 1 1.1 1h0.2q0.2 0 0.4-0.2v0.7h0.5v-3.1h0.4 0.2 2.7v0.6h-1.5q-0.5 0-0.8 0.4-0.3 0.3-0.3 0.7 0 0.5 0.3 0.8 0.3 0.4 0.7 0.4 0.5 0 0.8-0.4 0.4-0.3 0.4-0.8 0-0.3-0.2-0.6h-0.6q0.3 0.2 0.3 0.6 0 0.3-0.2 0.5-0.2 0.2-0.4 0.2-0.3 0-0.5-0.2-0.2-0.2-0.2-0.5 0-0.3 0.2-0.5 0.2-0.2 0.5-0.2h1.5v2.1h0.5v-3.1h0.2 0.4 0.1v3.1h0.5v-3.1h0.6v-0.3h-0.6q-0.1-0.5-0.4-0.7zm-5.1 2.7q0 0.5-0.7 0.5-0.5 0-0.5-0.6v-1.6h1.2zm4.9-2h-0.4-0.9q0-0.2 0.2-0.4 0.2-0.1 0.5-0.1 0.3 0 0.5 0.1 0.2 0.2 0.2 0.4z"/><path class="b" d="m111 26.4h1.3v-0.8h0.5v-0.3h-2.7-0.1-1q0.1-0.2 0.3-0.2-0.2-0.2-0.5-0.5-0.4-0.4-0.5-0.5-0.3-0.3-0.7-0.3l-0.4 0.3q0.6 0 0.9 0.3 0.1 0.1 0.4 0.4 0.2 0.3 0.4 0.5h-1.9-0.1-1.8q-0.2-0.5-0.6-0.8-0.5-0.2-1-0.2-0.5 0-0.9 0.2-0.4 0.3-0.7 0.8h-0.2-0.1-2q-0.2-0.5-0.7-0.8-0.4-0.2-0.9-0.2-0.5 0-0.9 0.2-0.5 0.3-0.7 0.8h-0.3v0.3h0.3v3.1h0.5v-3.1h0.4 0.1 3.3v0.5q-0.6 0-1 0.6v-0.2q-0.4-0.4-0.9-0.4-0.5 0-0.9 0.4-0.4 0.4-0.4 0.9 0 0.5 0.4 0.9 0.4 0.4 0.9 0.4 0.3 0 0.6-0.2v-0.6q-0.2 0.3-0.6 0.3-0.3 0-0.6-0.2-0.2-0.2-0.2-0.6 0-0.3 0.2-0.6 0.3-0.2 0.6-0.2 0.5 0 0.7 0.4 0 0.2 0 0.5l0.5 0.2q-0.1-0.1-0.1-0.3 0-0.3 0.2-0.6 0.3-0.2 0.6-0.2v2.1h0.5v-3.1h0.4 0.1 0.2v3.1h0.5v-3.1h0.4 0.2 1.9v1.9q0 0.3-0.2 0.5-0.2 0.2-0.5 0.2-0.3 0-0.5-0.2-0.1-0.2-0.1-0.5 0-0.2 0.2-0.4 0.1-0.2 0.4-0.2 0.3 0 0.5 0.2v-0.6q-0.2-0.1-0.5-0.1-0.5 0-0.8 0.3-0.3 0.4-0.3 0.9 0 0.4 0.3 0.8 0.3 0.3 0.8 0.3 0.5 0 0.8-0.3 0.4-0.4 0.4-0.9v-0.6h0.6v1.8h0.5v-3.1h0.4 0.1 1.8v0.5q-0.2-0.1-0.3-0.1-0.6 0-1 0.4-0.4 0.4-0.4 1 0 0.5 0.4 0.9 0.4 0.4 1 0.4 0.5 0 0.9-0.4 0.4-0.4 0.4-0.9h-0.5q0 0.3-0.2 0.5-0.3 0.3-0.6 0.3-0.4 0-0.6-0.3-0.3-0.2-0.3-0.5 0-0.4 0.3-0.6 0.2-0.3 0.6-0.3 0.5 0 0.7 0.6h0.1v-1.5h0.7 0.1 1.7v0.4h-0.7q-0.7 0-0.7 0.6 0 0.3 0.2 0.5 0.2 0.1 0.4 0.1 0.5 0 0.7 0 0.3 0.1 0.3 0.5 0 0.3-0.1 0.4-0.2 0.2-0.5 0.2-0.3 0-0.5-0.2-0.2-0.2-0.2-0.5 0 0 0-0.1h-0.5q0 0.1 0 0.1 0 0.5 0.4 0.8 0.3 0.4 0.8 0.4 0.4 0 0.8-0.3 0.3-0.3 0.3-0.8 0-0.9-1-0.9-0.4 0-0.4 0-0.3-0.1-0.3-0.2 0-0.2 0.2-0.2zm-13.6-1.1h-0.1-0.4q0.4-0.6 1.1-0.6 0.7 0 1.1 0.6zm5.5 0h-0.1-0.4q0.4-0.6 1.1-0.6 0.7 0 1.1 0.6zm3 0.3v0.9h-0.6v-0.9z"/></svg>