<svg xmlns="http://www.w3.org/2000/svg" viewBox="474 223 1099 967" fill="none">
<defs>
<linearGradient id="logoGradient" x1="475" y1="224" x2="1573" y2="224" gradientUnits="userSpaceOnUse">
<stop offset="0" stop-color="#2B55DC"/>
<stop offset="1" stop-color="#41A9FD"/>
</linearGradient>
</defs>
<path d="M1089 1189.5H1076L1061.5 1179 961.5 1027 957.5 1014 1085.5 741 1233.5 446 1236.5 438 1234.5 431 1223 422.5 596 421.5 585.5 413 477.5 249 474.5 235 483 225.5 1516 223.5 1558 224.5 1572.5 235 1573.5 247 1569.5 257 1498.5 388 1386.5 607 1121.5 1142 1101.5 1180 1089 1189.5Z" fill="url(#logoGradient)"/>
<path d="M903 924.5H899L889.5 914 821.5 811 829.5 790 868.5 719 865.5 707 852 701.5 760 690.5 751 685.5 649.5 534 645.5 521 650 515.5 1093 513.5 1099.5 518 1101.5 528 903 924.5Z" fill="url(#logoGradient)"/>
</svg>