<svg xmlns="http://www.w3.org/2000/svg"  viewBox="430 170 4200 1060" fill="none" preserveAspectRatio="xMinYMid meet" role="img" aria-labelledby="title desc">
  <title id="title">Taskoria Premium Logo</title>
  <desc id="desc">Premium refined Taskoria logo using the original icon geometry with subtle gradient, depth, and polished wordmark.</desc>
  <defs>
    <!-- Gradient definitions -->
    <linearGradient id="taskoriaIconGradient" x1="474" y1="223" x2="1574" y2="1189" gradientUnits="userSpaceOnUse">
      <stop offset="0" stop-color="#163FE8"/>
      <stop offset="0.52" stop-color="#2468F2"/>
      <stop offset="1" stop-color="#42B7FF"/>
    </linearGradient>

    <linearGradient id="taskoriaWordGradient" x1="2500" y1="180" x2="2500" y2="900" gradientUnits="userSpaceOnUse">
      <stop offset="0%" stop-color="#2388FF"/>
      <stop offset="55%" stop-color="#1F5EF0"/>
      <stop offset="100%" stop-color="#123FE9"/>
    </linearGradient>

    <linearGradient id="taskoriaHighlight" x1="520" y1="235" x2="1475" y2="915" gradientUnits="userSpaceOnUse">
      <stop offset="0" stop-color="#FFFFFF" stop-opacity="0.34"/>
      <stop offset="0.45" stop-color="#FFFFFF" stop-opacity="0.10"/>
      <stop offset="1" stop-color="#FFFFFF" stop-opacity="0"/>
    </linearGradient>

  </defs>

  <g transform="translate(474 223) scale(0.78) translate(-474 -223)">
    <path d="M1089 1189.5H1076L1061.5 1179L961.5 1027L957.5 1014L1085.5 741L1233.5 446L1236.5 438L1234.5 431L1223 422.5L596 421.5L585.5 413L477.5 249L474.5 235L483 225.5L1516 223.5L1558 224.5L1572.5 235L1573.5 247L1569.5 257L1498.5 388L1386.5 607L1121.5 1142L1101.5 1180L1089 1189.5Z" fill="url(#taskoriaIconGradient)"/>
    <path d="M903 924.5H899L889.5 914L821.5 811L829.5 790L868.5 719L865.5 707L852 701.5L760 690.5L751 685.5L649.5 534L645.5 521L650 515.5L1093 513.5L1099.5 518L1101.5 528L903 924.5Z" fill="url(#taskoriaIconGradient)"/>

    <!-- Very subtle premium gloss overlay; shape remains unchanged -->
    <path d="M1089 1189.5H1076L1061.5 1179L961.5 1027L957.5 1014L1085.5 741L1233.5 446L1236.5 438L1234.5 431L1223 422.5L596 421.5L585.5 413L477.5 249L474.5 235L483 225.5L1516 223.5L1558 224.5L1572.5 235L1573.5 247L1569.5 257L1498.5 388L1386.5 607L1121.5 1142L1101.5 1180L1089 1189.5Z" fill="url(#taskoriaHighlight)" opacity="0.55"/>
    <path d="M903 924.5H899L889.5 914L821.5 811L829.5 790L868.5 719L865.5 707L852 701.5L760 690.5L751 685.5L649.5 534L645.5 521L650 515.5L1093 513.5L1099.5 518L1101.5 528L903 924.5Z" fill="url(#taskoriaHighlight)" opacity="0.45"/>
  </g>

  <!-- Wordmark converted to paths so it renders consistently without font dependencies -->
  <path fill="url(#taskoriaWordGradient)" fill-rule="nonzero" d="M1632.432 914.6 L1632.432 450.713 L1466.758 450.713 L1466.758 356.26 L1910.459 356.26 L1910.459 450.713 L1745.166 450.713 L1745.166 914.6 Z M1988.531 633.525 L1891.412 616.006 Q1907.789 557.354 1947.779 529.17 Q1987.77 500.986 2066.607 500.986 Q2138.209 500.986 2173.248 517.935 Q2208.287 534.883 2222.569 560.972 Q2236.852 587.061 2236.852 656.758 L2235.709 781.68 Q2235.709 835 2240.851 860.327 Q2245.992 885.654 2260.084 914.6 L2154.205 914.6 Q2150.016 903.936 2143.922 882.988 Q2141.256 873.467 2140.113 870.42 Q2112.691 897.08 2081.461 910.41 Q2050.23 923.74 2014.811 923.74 Q1952.35 923.74 1916.358 889.844 Q1880.367 855.947 1880.367 804.15 Q1880.367 769.873 1896.744 743.022 Q1913.121 716.172 1942.638 701.89 Q1972.154 687.607 2027.76 676.943 Q2102.789 662.852 2131.734 650.664 L2131.734 640 Q2131.734 609.15 2116.5 596.011 Q2101.266 582.871 2058.99 582.871 Q2030.426 582.871 2014.43 594.106 Q1998.434 605.342 1988.531 633.525 Z M2131.734 720.361 Q2111.168 727.217 2066.607 736.738 Q2022.047 746.26 2008.336 755.4 Q1987.389 770.254 1987.389 793.105 Q1987.389 815.576 2004.146 831.953 Q2020.904 848.33 2046.803 848.33 Q2075.748 848.33 2102.027 829.287 Q2121.451 814.814 2127.545 793.867 Q2131.734 780.156 2131.734 741.689 Z M2288.645 799.199 L2396.047 782.822 Q2402.902 814.053 2423.85 830.239 Q2444.797 846.426 2482.502 846.426 Q2524.016 846.426 2544.963 831.191 Q2559.055 820.527 2559.055 802.627 Q2559.055 790.439 2551.438 782.441 Q2543.439 774.824 2515.637 768.35 Q2386.145 739.785 2351.486 716.172 Q2303.498 683.418 2303.498 625.146 Q2303.498 572.588 2345.012 536.787 Q2386.525 500.986 2473.742 500.986 Q2556.77 500.986 2597.141 528.027 Q2637.512 555.068 2652.746 608.008 L2551.818 626.67 Q2545.344 603.057 2527.253 590.488 Q2509.162 577.92 2475.646 577.92 Q2433.371 577.92 2415.09 589.727 Q2402.902 598.105 2402.902 611.436 Q2402.902 622.861 2413.566 630.859 Q2428.039 641.523 2513.542 660.947 Q2599.045 680.371 2632.941 708.555 Q2666.457 737.119 2666.457 788.154 Q2666.457 843.76 2619.992 883.75 Q2573.527 923.74 2482.502 923.74 Q2399.855 923.74 2351.677 890.225 Q2303.498 856.709 2288.645 799.199 Z M2740.34 914.6 L2740.34 356.26 L2847.361 356.26 L2847.361 652.568 L2972.664 510.127 L3104.441 510.127 L2966.189 657.9 L3114.344 914.6 L2998.943 914.6 L2897.254 732.93 L2847.361 785.107 L2847.361 914.6 Z M3137.191 706.65 Q3137.191 653.33 3163.471 603.438 Q3189.75 553.545 3237.929 527.266 Q3286.107 500.986 3345.521 500.986 Q3437.309 500.986 3495.961 560.591 Q3554.613 620.195 3554.613 711.221 Q3554.613 803.008 3495.39 863.374 Q3436.166 923.74 3346.283 923.74 Q3290.678 923.74 3240.214 898.604 Q3189.75 873.467 3163.471 824.907 Q3137.191 776.348 3137.191 706.65 Z M3246.879 712.363 Q3246.879 772.539 3275.443 804.531 Q3304.008 836.523 3345.902 836.523 Q3387.797 836.523 3416.171 804.531 Q3444.545 772.539 3444.545 711.602 Q3444.545 652.188 3416.171 620.195 Q3387.797 588.203 3345.902 588.203 Q3304.008 588.203 3275.443 620.195 Q3246.879 652.188 3246.879 712.363 Z M3724.854 914.6 L3617.832 914.6 L3617.832 510.127 L3717.236 510.127 L3717.236 567.637 Q3742.754 526.885 3763.13 513.936 Q3783.506 500.986 3809.404 500.986 Q3845.967 500.986 3879.863 521.172 L3846.729 614.482 Q3819.688 596.963 3796.455 596.963 Q3773.984 596.963 3758.369 609.341 Q3742.754 621.719 3733.804 654.092 Q3724.854 686.465 3724.854 789.678 Z M3909.947 455.283 L3909.947 356.26 L4016.969 356.26 L4016.969 455.283 Z M3909.947 914.6 L3909.947 510.127 L4016.969 510.127 L4016.969 914.6 Z M4190.637 633.525 L4093.518 616.006 Q4109.895 557.354 4149.885 529.17 Q4189.875 500.986 4268.713 500.986 Q4340.314 500.986 4375.354 517.935 Q4410.393 534.883 4424.675 560.972 Q4438.957 587.061 4438.957 656.758 L4437.814 781.68 Q4437.814 835 4442.956 860.327 Q4448.098 885.654 4462.189 914.6 L4356.311 914.6 Q4352.121 903.936 4346.027 882.988 Q4343.361 873.467 4342.219 870.42 Q4314.797 897.08 4283.566 910.41 Q4252.336 923.74 4216.916 923.74 Q4154.455 923.74 4118.464 889.844 Q4082.473 855.947 4082.473 804.15 Q4082.473 769.873 4098.85 743.022 Q4115.227 716.172 4144.743 701.89 Q4174.26 687.607 4229.865 676.943 Q4304.895 662.852 4333.84 650.664 L4333.84 640 Q4333.84 609.15 4318.605 596.011 Q4303.371 582.871 4261.096 582.871 Q4232.531 582.871 4216.535 594.106 Q4200.539 605.342 4190.637 633.525 Z M4333.84 720.361 Q4313.273 727.217 4268.713 736.738 Q4224.152 746.26 4210.441 755.4 Q4189.494 770.254 4189.494 793.105 Q4189.494 815.576 4206.252 831.953 Q4223.01 848.33 4248.908 848.33 Q4277.854 848.33 4304.133 829.287 Q4323.557 814.814 4329.65 793.867 Q4333.84 780.156 4333.84 741.689 Z"/>
</svg>
